<?xml version="1.0" encoding="UTF-8"?>
<svg width="413" height="150" version="1.1" viewBox="0 0 109.27 39.688" xmlns="http://www.w3.org/2000/svg" xmlns:cc="http://creativecommons.org/ns#" xmlns:dc="http://purl.org/dc/elements/1.1/" xmlns:rdf="http://www.w3.org/1999/02/22-rdf-syntax-ns#" xmlns:xlink="http://www.w3.org/1999/xlink">
 <defs>
  <linearGradient id="linearGradient1333" x1="2.6458" x2="107.05" y1="19.784" y2="19.784" gradientUnits="userSpaceOnUse">
   <stop stop-color="#0f0" offset="0"/>
   <stop stop-color="#008080" offset="1"/>
  </linearGradient>
 </defs>
 <metadata>
  <rdf:RDF>
   <cc:Work rdf:about="">
    <dc:format>image/svg+xml</dc:format>
    <dc:type rdf:resource="http://purl.org/dc/dcmitype/StillImage"/>
    <dc:title/>
   </cc:Work>
  </rdf:RDF>
 </metadata>
 <g fill="url(#linearGradient1333)" stroke-width="0" style="font-variant-caps:normal;font-variant-east-asian:normal;font-variant-ligatures:normal;font-variant-numeric:normal" aria-label="rimbu">
  <path d="m4.1275 36.922q-0.59267 0-1.0372-0.39511-0.4445-0.4445-0.4445-1.0372v-12.051q0-1.778 0.69144-3.3584t1.8768-2.7658q1.1853-1.1853 2.7658-1.8768 1.5804-0.69144 3.3584-0.69144h2.4201q0.59267 0 1.0372 0.4445 0.4445 0.39511 0.4445 0.98778t-0.4445 1.0372q-0.4445 0.39511-1.0372 0.39511h-2.4201q-1.1853 0-2.2719 0.49389-1.0372 0.4445-1.8274 1.2347-0.74083 0.79022-1.2347 1.8768-0.4445 1.0372-0.4445 2.2225v12.051q0 0.59267-0.4445 1.0372-0.39511 0.39511-0.98778 0.39511z" style="font-variant-caps:normal;font-variant-east-asian:normal;font-variant-ligatures:normal;font-variant-numeric:normal"/>
  <path d="m19.802 12.771q-0.59267 0-1.0372-0.39511-0.39511-0.4445-0.39511-1.0372v-0.54328q0-0.59267 0.39511-1.0372 0.4445-0.4445 1.0372-0.4445 0.59267 0 1.0372 0.4445 0.4445 0.4445 0.4445 1.0372v0.54328q0 0.59267-0.4445 1.0372-0.4445 0.39511-1.0372 0.39511zm0 24.151q-0.59267 0-1.0372-0.39511-0.39511-0.4445-0.39511-1.0866v-19.262q0-0.64206 0.39511-1.0372 0.4445-0.4445 1.0372-0.4445 0.59267 0 1.0372 0.4445 0.4445 0.39511 0.4445 1.0372v19.262q0 0.64206-0.4445 1.0866-0.4445 0.39511-1.0372 0.39511z" style="font-variant-caps:normal;font-variant-east-asian:normal;font-variant-ligatures:normal;font-variant-numeric:normal"/>
  <path d="m26.359 36.922q-0.59267 0-1.0372-0.39511-0.4445-0.4445-0.4445-1.0372v-12.051q0-1.778 0.69144-3.3584 0.69144-1.5804 1.8768-2.7658 1.1853-1.1853 2.7658-1.8768 1.5804-0.69144 3.3584-0.69144 2.2225 0 4.0993 1.0372 1.9262 1.0372 3.1609 2.8646 1.1853-1.8274 3.0621-2.8646 1.9262-1.0372 4.1487-1.0372 1.778 0 3.3584 0.69144 1.5804 0.69144 2.7658 1.8768 1.1853 1.1853 1.8768 2.7658t0.69144 3.3584v12.051q0 0.59267-0.4445 1.0372-0.39511 0.39511-0.98778 0.39511-0.59267 0-1.0372-0.39511-0.4445-0.4445-0.4445-1.0372v-12.051q0-1.1853-0.4445-2.2225-0.4445-1.0866-1.2347-1.8768-0.79022-0.79022-1.8768-1.2347-1.0372-0.4445-2.2225-0.4445t-2.2719 0.4445q-1.0372 0.4445-1.8274 1.2347-0.74083 0.79022-1.2347 1.8768-0.4445 1.0372-0.4445 2.2225v12.051q0 0.59267-0.4445 1.0372-0.39511 0.39511-0.98778 0.39511-0.59267 0-1.0372-0.39511-0.4445-0.4445-0.4445-1.0372v-12.051q0-1.1853-0.4445-2.2225-0.4445-1.0866-1.2347-1.8768-0.79022-0.79022-1.8768-1.2347-1.0372-0.4445-2.2225-0.4445t-2.2719 0.4445q-1.0372 0.4445-1.8274 1.2347-0.74083 0.79022-1.2347 1.8768-0.4445 1.0372-0.4445 2.2225v12.051q0 0.59267-0.4445 1.0372-0.39511 0.39511-0.98778 0.39511z" style="font-variant-caps:normal;font-variant-east-asian:normal;font-variant-ligatures:normal;font-variant-numeric:normal"/>
  <path d="m70.808 14.697q2.2719 0 4.2968 0.889 2.0249 0.83961 3.556 2.3707 1.5311 1.5311 2.3707 3.556 0.889 2.0249 0.889 4.2968 0 2.3213-0.889 4.3462-0.83961 1.9756-2.3707 3.5066-1.5311 1.5311-3.556 2.4201-2.0249 0.83961-4.2968 0.83961-2.3213 0-4.3462-0.83961-1.9756-0.889-3.5066-2.4201t-2.4201-3.5066q-0.83961-2.0249-0.83961-4.3462v-21.682q0-0.64206 0.4445-1.0372 0.4445-0.4445 1.0372-0.4445 0.59267 0 0.98778 0.4445 0.4445 0.39511 0.4445 1.0372v14.224q1.3829-1.4817 3.0127-2.3213 1.1853-0.64206 2.5188-0.98778 1.3335-0.34572 2.667-0.34572zm0 19.311q1.6792 0 3.1609-0.64206 1.5311-0.64206 2.6176-1.7286 1.1359-1.1359 1.778-2.6176t0.64206-3.2103q0-1.6792-0.64206-3.1609-0.64206-1.5311-1.778-2.6176-1.0866-1.1359-2.6176-1.778-1.4817-0.64206-3.1609-0.64206-1.6792 0-3.2103 0.64206-1.4817 0.64206-2.6176 1.778-1.0866 1.0866-1.7286 2.6176-0.64206 1.4817-0.64206 3.1609 0 1.7286 0.64206 3.2103 0.64206 1.4817 1.7286 2.6176 1.1359 1.0866 2.6176 1.7286 1.5311 0.64206 3.2103 0.64206z" style="font-variant-caps:normal;font-variant-east-asian:normal;font-variant-ligatures:normal;font-variant-numeric:normal"/>
  <path d="m105.62 14.697q0.59266 0 0.98778 0.4445 0.4445 0.39511 0.4445 0.98778v9.6802q0 2.3213-0.889 4.3462-0.83962 1.9756-2.3707 3.5066-1.5311 1.5311-3.556 2.4201-2.0249 0.83961-4.2968 0.83961-2.3213 0-4.3462-0.83961-1.9756-0.889-3.5066-2.4201-1.4817-1.5311-2.3707-3.5066-0.83961-2.0249-0.83961-4.3462v-9.6802q0-0.59267 0.39511-0.98778 0.4445-0.4445 1.0372-0.4445 0.59267 0 0.98778 0.4445 0.4445 0.39511 0.4445 0.98778v9.6802q0 1.6792 0.64206 3.2103 0.64206 1.4817 1.7286 2.6176 1.1359 1.0866 2.6176 1.7286 1.5311 0.64206 3.2103 0.64206 1.6792 0 3.1609-0.64206 1.5311-0.64206 2.6176-1.7286 1.136-1.1359 1.778-2.6176 0.64206-1.5311 0.64206-3.2103v-9.6802q0-0.59267 0.4445-0.98778 0.4445-0.4445 1.0372-0.4445z" style="font-variant-caps:normal;font-variant-east-asian:normal;font-variant-ligatures:normal;font-variant-numeric:normal"/>
 </g>
</svg>
